# xmcd
#
# Track frame offsets:
#	150
#	12020
#	24281
#	35970
#	48220
#	61634
#	77657
#	96354
#	109123
#	127959
#	136383
#	147604
#	160041
#	178925
#	197673
#	214638
#	235040
#	245011
#	254439
#
# Disc length: 3543 seconds
#
# Revision: 1
# Processed by: cddbd v1.5.2PL0 Copyright (c) Steve Scherf et al.
# Submitted via: audiograbber 1.83.01
#
DISCID=030dd513
DTITLE=Kris Kristofferson - An Evening With Kris Kristofferson (The Pilgrim, Ch
DTITLE=apter 77 Union Chapel London - Disc 2)
DYEAR=2014
DGENRE=Country
TTITLE0=You Show Me Yours/Jesus Was A Carpricon
TTITLE1=Duvalier´s Dream
TTITLE2=The Heart
TTITLE3=Come Sundown
TTITLE4=Billy Dee
TTITLE5=The Promise
TTITLE6=Sabre And The Rose
TTITLE7=Jody And The Kid
TTITLE8=Broken Freedom Song
TTITLE9=Sky King
TTITLE10=They Killed Him
TTITLE11=The Pilgrim Ch. 33
TTITLE12=Sunday Morning Coming Down
TTITLE13=Silver Tounged Devil
TTITLE14=For The Good Times
TTITLE15=To Beat The Devil
TTITLE16=Please Don´t Tell Me How The Story Ends
TTITLE17=A Moment Of Forever
TTITLE18=Why Me
EXTD=
EXTT0=
EXTT1=
EXTT2=
EXTT3=
EXTT4=
EXTT5=
EXTT6=
EXTT7=
EXTT8=
EXTT9=
EXTT10=
EXTT11=
EXTT12=
EXTT13=
EXTT14=
EXTT15=
EXTT16=
EXTT17=
EXTT18=
PLAYORDER=
